<?xml version="1.0" encoding="utf-8"?>
<!-- Generator: Adobe Illustrator 16.0.3, SVG Export Plug-In . SVG Version: 6.00 Build 0)  -->
<!DOCTYPE svg PUBLIC "-//W3C//DTD SVG 1.0//EN" "http://www.w3.org/TR/2001/REC-SVG-20010904/DTD/svg10.dtd">
<svg version="1.0" id="Logo_and_text" xmlns="http://www.w3.org/2000/svg" xmlns:xlink="http://www.w3.org/1999/xlink" x="0px"
	 y="0px" width="226.771px" height="56.693px" viewBox="0 0 226.771 56.693" enable-background="new 0 0 226.771 56.693"
	 xml:space="preserve">
<path fill="#002F87" d="M136.087,21.705c-3.959,0-7.166,1.568-7.166,5.562c0,3.991,3.207,5.563,7.166,5.563
	c3.96,0,7.167-1.571,7.167-5.563C143.254,23.273,140.047,21.705,136.087,21.705z M136.087,30.732c-2.428,0-4.395-0.698-4.395-3.466
	s1.967-3.47,4.395-3.47c2.427,0,4.399,0.702,4.399,3.47S138.514,30.732,136.087,30.732z"/>
<path fill="#002F87" d="M63.845,23.944c1.915,0,3.536,0.446,4.073,2.058h2.454c-0.68-3.138-3.179-4.091-6.6-4.091
	c-3.836,0-6.878,1.523-6.878,5.396s3.042,5.395,6.878,5.395c3.421,0,5.92-0.957,6.6-4.089h-2.454
	c-0.537,1.607-2.158,2.058-4.073,2.058c-2.352,0-4.265-0.68-4.265-3.363C59.58,24.62,61.493,23.944,63.845,23.944z"/>
<path fill="#002F87" d="M213.522,30.614c-2.278,0-4.133-0.658-4.133-3.264c0-2.608,1.854-3.266,4.133-3.266
	c1.858,0,3.428,0.438,3.951,1.997h2.382c-0.658-3.042-3.079-3.967-6.4-3.967c-3.722,0-6.67,1.478-6.67,5.235
	c0,3.754,2.948,5.233,6.67,5.233c3.321,0,5.742-0.925,6.4-3.967h-2.382C216.95,30.182,215.381,30.614,213.522,30.614z"/>
<polygon fill="#002F87" points="145.559,21.813 145.559,32.313 148.351,32.313 148.351,26.688 152.753,29.82 157.155,26.688 
	157.155,32.313 159.944,32.313 159.944,21.813 152.753,27.102 "/>
<rect x="201.893" y="22.417" fill="#002F87" width="3.011" height="9.896"/>
<polygon fill="#002F87" points="115.139,24.316 120.12,24.316 120.12,32.313 123.08,32.313 123.08,24.316 128.057,24.316 
	128.057,22.452 115.139,22.452 "/>
<path fill="#002F87" d="M167.409,22.417l-6.041,9.896h2.785l1.413-2.307h6.48l1.407,2.307h2.787l-6.043-9.896H167.409z
	 M170.984,28.272h-4.359l2.178-3.572L170.984,28.272z"/>
<polygon fill="#002F87" points="174.462,24.316 179.437,24.316 179.437,32.313 182.4,32.313 182.4,24.316 187.373,24.316 
	187.373,22.452 174.462,22.452 "/>
<path fill="#002F87" d="M111.309,22.399h-9.705v9.914h2.788v-3.667h6.917l0,0c1.586,0,2.77-1.399,2.77-3.125
	C114.078,23.795,112.895,22.399,111.309,22.399z M110.411,26.91h-6.02v-2.776h6.02c0.664,0,1.234,0.506,1.234,1.388
	C111.646,26.404,111.075,26.91,110.411,26.91z"/>
<path fill="#002F87" d="M83.86,28.104c0.728-0.563,1.188-1.51,1.188-2.582c0-1.727-1.186-3.122-2.775-3.122h-9.703v9.914h2.788
	v-3.667h5.278c1.445,0.162,1.494,1.049,1.494,2.25c0,0.681,0.123,1.152,0.312,1.417h2.832c-0.51-0.511-0.525-1.558-0.525-2.005
	C84.748,29.328,84.564,28.539,83.86,28.104z M75.357,26.91v-2.776h6.023c0.656,0,1.23,0.506,1.23,1.388
	c0,0.883-0.574,1.389-1.23,1.389H75.357z"/>
<polygon fill="#002F87" points="96.854,22.384 93.095,26.862 89.339,22.384 85.96,22.384 91.629,29.086 91.629,32.313 
	94.565,32.313 94.565,29.086 100.231,22.384 "/>
<path fill="#002F87" d="M196.663,26.149h-3.637c-0.296,0.021-0.578,0.09-0.845,0.18v-3.912h-3.085v9.896h3.085v-3.41
	c0-0.671,0.547-0.975,1.22-0.975h1.96c0.676,0,1.221,0.304,1.221,0.975v3.41h3.092v-3.41
	C199.674,27.243,198.321,26.149,196.663,26.149z"/>
<path fill="#999999" d="M32.418,9.562l10.48,10.338l0.389-0.392L32.418,8.787V8.775H32.14H16.796v0.012L5.931,19.506H5.919v15.77
	h0.012l10.873,10.724l0.386-0.394L6.715,35.275H21.15l10.797,10.649l0.388-0.395L21.729,35.073l2.878-2.837l3.073,3.033l0.389-0.393
	L25,31.851l4.126-4.075l2.894,2.854l0.391-0.395l-2.888-2.848l2.693-2.658l10.608,10.465l0.388-0.394L32.418,24.153V9.562z
	 M6.469,20.438l7.045,6.949l-7.045,6.95C6.469,32.248,6.469,22.53,6.469,20.438z M6.868,20.055c1.428,0,6.301,0,9.928,0v4.099
	l-2.887,2.848L6.868,20.055z M17.347,23.994c0-0.175,0-1.813,0-3.939c1.975,0,3.473,0,3.641,0c0,0.176,0,1.816,0,3.939
	C19.01,23.994,17.518,23.994,17.347,23.994z M20.987,24.547c0,1.059,0,2.207,0,3.344l-3.395-3.344H20.987z M24.212,16.48
	l-3.062,3.025h-3.804c0-3.652,0-8.405,0-9.796L24.212,16.48z M17.744,9.328c2.099,0,11.623,0,13.723,0l-6.86,6.763L17.744,9.328z
	 M21.537,20.291l3.757,3.703c-1.279,0-2.581,0-3.757,0V20.291z M21.729,19.703l2.878-2.832l3.147,3.104l0.389-0.394L25,16.48
	l6.865-6.771c0,2.298,0,13.804,0,14.284c-0.226,0-2.839,0-5.787,0L21.729,19.703z M16.796,9.562v9.944H6.715L16.796,9.562z
	 M6.868,34.725l7.041-6.949l2.968,2.929l0.39-0.395l-2.965-2.922l2.694-2.658l3.991,3.938c0,3.066,0,5.828,0,6.058
	C20.508,34.725,9.179,34.725,6.868,34.725z M21.537,34.485V29.21l2.675,2.641L21.537,34.485z M24.606,31.463l-3.069-3.027v-3.889
	h4.313l2.884,2.841L24.606,31.463z M26.637,24.547h4.981l-2.492,2.454L26.637,24.547z"/>
<path d="M43.293,35.275v-15.77H27.676l-10.88,10.728v15.771h15.622L43.293,35.275z M27.676,34.879L17.347,45.068
	c0-2.302,0-13.806,0-14.284c0.34,0,6.16,0,10.329,0V34.879z M28.229,30.784c1.97,0,3.468,0,3.637,0c0,0.173,0,1.813,0,3.94
	c-1.975,0-3.476,0-3.637,0C28.229,34.548,28.229,32.909,28.229,30.784z M32.418,30.625l10.326-10.187c0,2.301,0,13.806,0,14.286
	c-0.344,0-6.159,0-10.326,0V30.625z M42.346,20.055L32.023,30.233h-3.795c0-4.192,0-9.846,0-10.179
	C28.701,20.055,40.033,20.055,42.346,20.055z M27.676,20.291v9.942H17.593L27.676,20.291z M17.744,45.452l10.318-10.177h3.803
	c0,4.192,0,9.846,0,10.177C31.387,45.452,20.059,45.452,17.744,45.452z M32.418,45.217v-9.941h10.077L32.418,45.217z"/>
</svg>
